<svg xmlns="http://www.w3.org/2000/svg" width="24.887" height="29" viewBox="0 0 24.887 29">
  <path id="Logo" d="M32.05,4.531l12.469,7.234V26.276L32.064,33.531l-.1-.025L19.633,26.276V11.764L31.963,4.531Zm-.041,1.5L20.942,12.523V25.518l11.065,6.489,1.352-.788,9.85-5.706V12.525l-9.85-5.739-1.35-.755Zm-9.352,14,3.276-2.467,2.9,1.863v3.351L31.02,24.9v1l-2.111,1.992H27.125l-4.466-7.863ZM33.009,25.9l0-1,2.183-2.124V19.425l2.865-1.886,3.269,2.492L36.878,27.87h-1.76Zm-3.1-6.478-1.066-2.811h6.337L34.13,19.425l.309,3.143-2.445.005-2.417,0,.327-3.152Zm2.089-3.582-6.023,0,1.12-5.04h9.776l1.179,5.046Z" transform="translate(-19.633 -4.531)" fill="#1a90ff"/>
</svg>
